<svg width="105" height="31" viewBox="0 0 105 31" fill="none" xmlns="http://www.w3.org/2000/svg">
<path d="M100.964 0.0471191H4.66728C2.53996 0.0471191 0.81543 1.72605 0.81543 3.79712V26.2971C0.81543 28.3682 2.53996 30.0471 4.66728 30.0471H100.964C103.091 30.0471 104.815 28.3682 104.815 26.2971V3.79712C104.815 1.72605 103.091 0.0471191 100.964 0.0471191Z" fill="black"/>
<path d="M100.964 0.647119C101.822 0.647119 102.645 0.978993 103.251 1.56973C103.858 2.16047 104.199 2.96169 104.199 3.79712V26.2971C104.199 27.1326 103.858 27.9338 103.251 28.5245C102.645 29.1152 101.822 29.4471 100.964 29.4471H4.66728C3.80916 29.4471 2.98618 29.1152 2.3794 28.5245C1.77261 27.9338 1.43173 27.1326 1.43173 26.2971V3.79712C1.43173 2.96169 1.77261 2.16047 2.3794 1.56973C2.98618 0.978993 3.80916 0.647119 4.66728 0.647119H100.964ZM100.964 0.0471191H4.66728C3.64571 0.0471191 2.66597 0.442207 1.94361 1.14547C1.22125 1.84873 0.81543 2.80256 0.81543 3.79712V26.2971C0.81543 27.2917 1.22125 28.2455 1.94361 28.9488C2.66597 29.652 3.64571 30.0471 4.66728 30.0471H100.964C101.985 30.0471 102.965 29.652 103.687 28.9488C104.41 28.2455 104.815 27.2917 104.815 26.2971V3.79712C104.815 2.80256 104.41 1.84873 103.687 1.14547C102.965 0.442207 101.985 0.0471191 100.964 0.0471191Z" fill="#A6A6A6"/>
<path d="M25.5542 14.5321C25.5329 12.2289 27.4912 11.1084 27.5808 11.0562C26.4717 9.48195 24.7526 9.26685 24.1485 9.2497C22.7047 9.10178 21.3042 10.0908 20.5687 10.0908C19.8186 10.0908 18.686 9.26399 17.4653 9.28829C15.8945 9.31187 14.425 10.1973 13.6191 11.5722C11.9558 14.3756 13.1963 18.4953 14.7898 20.7613C15.587 21.8711 16.5184 23.1102 17.7376 23.0666C18.9304 23.0187 19.376 22.3263 20.8154 22.3263C22.2416 22.3263 22.6599 23.0666 23.9034 23.0387C25.1835 23.0187 25.9894 21.9239 26.7587 20.8041C27.6799 19.5322 28.0498 18.2794 28.0645 18.2151C28.0344 18.2051 25.5784 17.2926 25.5542 14.5321Z" fill="white"/>
<path d="M23.2054 7.75893C23.8469 6.97787 24.2858 5.91525 24.164 4.83691C23.2355 4.87693 22.0743 5.46219 21.4056 6.22611C20.814 6.89926 20.2855 8.00261 20.422 9.04022C21.465 9.11597 22.536 8.52785 23.2054 7.75893Z" fill="white"/>
<path d="M42.8156 22.9072H41.1487L40.2356 20.1138H37.0617L36.1919 22.9072H34.569L37.7135 13.3972H39.6557L42.8156 22.9072ZM39.9603 18.9418L39.1345 16.4586C39.0472 16.2049 38.8835 15.6075 38.642 14.6671H38.6126C38.5165 15.0715 38.3616 15.6689 38.1488 16.4586L37.3377 18.9418H39.9603Z" fill="white"/>
<path d="M50.9022 19.3941C50.9022 20.5603 50.5785 21.4821 49.9311 22.1589C49.3512 22.7613 48.6311 23.0621 47.7716 23.0621C46.8438 23.0621 46.1773 22.7377 45.7714 22.0888H45.742V25.7012H44.1771V18.3071C44.1771 17.574 44.1573 16.8215 44.1191 16.0497H45.4954L45.5828 17.1366H45.6121C46.134 16.3177 46.926 15.9089 47.9889 15.9089C48.8198 15.9089 49.5134 16.2284 50.0683 16.8679C50.6247 17.5082 50.9022 18.35 50.9022 19.3941ZM49.3079 19.4498C49.3079 18.7824 49.1537 18.2321 48.844 17.7991C48.5056 17.3474 48.0512 17.1216 47.4817 17.1216C47.0956 17.1216 46.7447 17.2474 46.4313 17.4954C46.1171 17.7455 45.9116 18.072 45.8154 18.4765C45.767 18.6652 45.7428 18.8195 45.7428 18.941V20.0844C45.7428 20.5832 45.8999 21.0041 46.214 21.3478C46.5282 21.6915 46.9363 21.863 47.4383 21.863C48.0278 21.863 48.4865 21.6415 48.8146 21.1999C49.1435 20.7575 49.3079 20.1744 49.3079 19.4498Z" fill="white"/>
<path d="M59.0037 19.3941C59.0037 20.5603 58.68 21.4821 58.0319 22.1589C57.4528 22.7613 56.7327 23.0621 55.8732 23.0621C54.9454 23.0621 54.2789 22.7377 53.8737 22.0888H53.8443V25.7012H52.2794V18.3071C52.2794 17.574 52.2596 16.8215 52.2214 16.0497H53.5977L53.6851 17.1366H53.7144C54.2356 16.3177 55.0276 15.9089 56.0912 15.9089C56.9213 15.9089 57.615 16.2284 58.1714 16.8679C58.7255 17.5082 59.0037 18.35 59.0037 19.3941ZM57.4094 19.4498C57.4094 18.7824 57.2546 18.2321 56.9448 17.7991C56.6064 17.3474 56.1535 17.1216 55.5832 17.1216C55.1964 17.1216 54.8463 17.2474 54.5321 17.4954C54.218 17.7455 54.0132 18.072 53.917 18.4765C53.8693 18.6652 53.8443 18.8195 53.8443 18.941V20.0844C53.8443 20.5832 54.0014 21.0041 54.3141 21.3478C54.6283 21.6908 55.0364 21.863 55.5399 21.863C56.1293 21.863 56.5881 21.6415 56.9162 21.1999C57.245 20.7575 57.4094 20.1744 57.4094 19.4498Z" fill="white"/>
<path d="M68.0614 20.2402C68.0614 21.0491 67.7729 21.7073 67.1938 22.2154C66.5574 22.7706 65.6714 23.0479 64.533 23.0479C63.4819 23.0479 62.6392 22.8507 62.0013 22.4555L62.3639 21.1856C63.051 21.5901 63.8048 21.7931 64.6262 21.7931C65.2156 21.7931 65.6744 21.663 66.0039 21.4043C66.332 21.1456 66.4957 20.7983 66.4957 20.3653C66.4957 19.9794 66.3607 19.6542 66.0898 19.3906C65.8204 19.1269 65.3705 18.8818 64.7422 18.6552C63.0319 18.0342 62.1775 17.1245 62.1775 15.9283C62.1775 15.1465 62.477 14.5055 63.0767 14.0067C63.6742 13.5072 64.4713 13.2578 65.4681 13.2578C66.357 13.2578 67.0954 13.4086 67.6848 13.7094L67.2936 14.9514C66.7431 14.6599 66.1206 14.5141 65.4241 14.5141C64.8735 14.5141 64.4434 14.6463 64.1351 14.9093C63.8746 15.1444 63.7439 15.4309 63.7439 15.7704C63.7439 16.1462 63.8929 16.4571 64.1924 16.7015C64.453 16.9273 64.9264 17.1717 65.6134 17.4354C66.4539 17.7648 67.0712 18.15 67.4683 18.5916C67.8639 19.0318 68.0614 19.5828 68.0614 20.2402Z" fill="white"/>
<path d="M73.2354 17.1931H71.5104V20.5224C71.5104 21.3692 71.8143 21.7922 72.4236 21.7922C72.7032 21.7922 72.9352 21.7687 73.1187 21.7215L73.162 22.8784C72.8537 22.9906 72.4478 23.0471 71.945 23.0471C71.3269 23.0471 70.844 22.8634 70.4953 22.4968C70.1481 22.1295 69.9734 21.5136 69.9734 20.6482V17.1916H68.9458V16.0483H69.9734V14.7927L71.5104 14.3411V16.0483H73.2354V17.1931Z" fill="white"/>
<path d="M81.018 19.422C81.018 20.476 80.7083 21.3414 80.0902 22.0181C79.4421 22.7149 78.5818 23.0621 77.5094 23.0621C76.4759 23.0621 75.6531 22.7284 75.0395 22.061C74.4258 21.3935 74.119 20.551 74.119 19.5356C74.119 18.473 74.4346 17.6026 75.0681 16.9258C75.7001 16.2484 76.553 15.9097 77.6254 15.9097C78.6589 15.9097 79.4905 16.2434 80.1181 16.9115C80.7185 17.5597 81.018 18.3965 81.018 19.422ZM79.3944 19.4713C79.3944 18.8388 79.2556 18.2964 78.9745 17.8441C78.6464 17.2967 78.1774 17.0237 77.5696 17.0237C76.9406 17.0237 76.4627 17.2974 76.1346 17.8441C75.8535 18.2972 75.7148 18.8481 75.7148 19.4998C75.7148 20.1323 75.8535 20.6747 76.1346 21.1263C76.473 21.6737 76.9457 21.9467 77.5557 21.9467C78.1532 21.9467 78.6222 21.668 78.9606 21.112C79.249 20.6511 79.3944 20.103 79.3944 19.4713Z" fill="white"/>
<path d="M86.1045 17.3896C85.9496 17.3617 85.7845 17.3474 85.6112 17.3474C85.0607 17.3474 84.635 17.5497 84.3355 17.9548C84.0749 18.3122 83.9443 18.7638 83.9443 19.309V22.9071H82.3801L82.3948 18.2092C82.3948 17.4189 82.375 16.6993 82.3361 16.0504H83.6991L83.7564 17.3624H83.7997C83.9648 16.9115 84.2254 16.5485 84.5821 16.2762C84.9308 16.0311 85.3073 15.9089 85.7133 15.9089C85.8579 15.9089 85.9885 15.9189 86.1045 15.9368V17.3896Z" fill="white"/>
<path d="M93.1033 19.1541C93.1033 19.4271 93.085 19.6572 93.0461 19.8451H88.3513C88.3696 20.5226 88.5965 21.0407 89.0325 21.398C89.4281 21.7174 89.9397 21.8775 90.568 21.8775C91.2631 21.8775 91.8973 21.7696 92.4676 21.553L92.7128 22.6107C92.0463 22.8936 91.2595 23.0344 90.3515 23.0344C89.2593 23.0344 88.4019 22.7214 87.778 22.0961C87.1556 21.4709 86.8436 20.6312 86.8436 19.5779C86.8436 18.5438 87.1336 17.6828 87.7142 16.996C88.3219 16.2628 89.1433 15.8962 90.1768 15.8962C91.1919 15.8962 91.9604 16.2628 92.4823 16.996C92.8956 17.5784 93.1033 18.2987 93.1033 19.1541ZM91.6111 18.7589C91.6213 18.3073 91.5193 17.9171 91.3072 17.5877C91.0363 17.1639 90.6201 16.9524 90.0601 16.9524C89.5485 16.9524 89.1323 17.1589 88.8145 17.5734C88.5539 17.9029 88.399 18.298 88.3513 18.7582H91.6111V18.7589Z" fill="white"/>
<path d="M39.443 7.54667C39.443 8.38776 39.1839 9.0209 38.6664 9.44609C38.1871 9.83841 37.5059 10.0349 36.6237 10.0349C36.1862 10.0349 35.8118 10.0163 35.4984 9.97919V5.38356C35.9073 5.31925 36.3477 5.28638 36.8233 5.28638C37.6638 5.28638 38.2972 5.46431 38.7244 5.82019C39.203 6.22251 39.443 6.79777 39.443 7.54667ZM38.6319 7.56739C38.6319 7.02215 38.4836 6.60411 38.1871 6.31255C37.8906 6.0217 37.4575 5.87593 36.8872 5.87593C36.6449 5.87593 36.4387 5.89165 36.2677 5.92452V9.41822C36.3623 9.43251 36.5356 9.43894 36.7873 9.43894C37.376 9.43894 37.8304 9.27959 38.1504 8.96087C38.4704 8.64216 38.6319 8.17767 38.6319 7.56739Z" fill="white"/>
<path d="M43.7434 8.28121C43.7434 8.7993 43.5915 9.22377 43.2876 9.55678C42.969 9.89907 42.547 10.0699 42.02 10.0699C41.512 10.0699 41.1076 9.90622 40.8059 9.5775C40.505 9.2495 40.3545 8.83574 40.3545 8.33695C40.3545 7.81529 40.5094 7.38724 40.8206 7.05495C41.1318 6.72266 41.5502 6.55615 42.0772 6.55615C42.5852 6.55615 42.9933 6.7198 43.3023 7.0478C43.5959 7.36651 43.7434 7.77813 43.7434 8.28121ZM42.9456 8.3055C42.9456 7.99465 42.8766 7.7281 42.7393 7.50586C42.5778 7.23717 42.3481 7.10282 42.0493 7.10282C41.7403 7.10282 41.5054 7.23717 41.3439 7.50586C41.2059 7.7281 41.1377 7.99894 41.1377 8.31908C41.1377 8.62994 41.2067 8.89648 41.3439 9.11872C41.5106 9.38742 41.7425 9.52176 42.042 9.52176C42.3356 9.52176 42.5661 9.38527 42.732 9.11158C42.8744 8.88505 42.9456 8.61636 42.9456 8.3055Z" fill="white"/>
<path d="M49.5099 6.62476L48.4272 9.9934H47.7226L47.2741 8.53061C47.1603 8.16544 47.0678 7.80242 46.9959 7.44226H46.9819C46.9152 7.81243 46.8227 8.17473 46.7038 8.53061L46.2274 9.9934H45.5147L44.4966 6.62476H45.2871L45.6783 8.22619C45.773 8.60493 45.8508 8.9658 45.9132 9.30738H45.9272C45.9844 9.02583 46.0791 8.6671 46.2127 8.23333L46.7038 6.62547H47.3306L47.8011 8.19903C47.9149 8.58277 48.0074 8.95222 48.0786 9.3081H48.0999C48.152 8.96151 48.2305 8.59206 48.3347 8.19903L48.7546 6.62547H49.5099V6.62476Z" fill="white"/>
<path d="M53.498 9.99335H52.7288V8.06391C52.7288 7.46936 52.4968 7.17209 52.0315 7.17209C51.8032 7.17209 51.619 7.25355 51.4758 7.4172C51.3342 7.58084 51.2622 7.77378 51.2622 7.9946V9.99263H50.493V7.58727C50.493 7.29143 50.4834 6.97057 50.4651 6.62327H51.1411L51.1771 7.14994H51.1984C51.2879 6.98629 51.4215 6.85123 51.5969 6.74333C51.8054 6.61756 52.0388 6.55396 52.2942 6.55396C52.6172 6.55396 52.8859 6.65543 53.0995 6.85909C53.3652 7.10849 53.498 7.4808 53.498 7.9753V9.99335Z" fill="white"/>
<path d="M55.6191 9.99344H54.8506V5.0791H55.6191V9.99344Z" fill="white"/>
<path d="M60.1481 8.28121C60.1481 8.7993 59.9962 9.22377 59.6923 9.55678C59.3737 9.89907 58.9509 10.0699 58.4246 10.0699C57.916 10.0699 57.5115 9.90622 57.2106 9.5775C56.9096 9.2495 56.7592 8.83574 56.7592 8.33695C56.7592 7.81529 56.914 7.38724 57.2253 7.05495C57.5365 6.72266 57.9549 6.55615 58.4812 6.55615C58.9898 6.55615 59.3972 6.7198 59.707 7.0478C60.0006 7.36651 60.1481 7.77813 60.1481 8.28121ZM59.3495 8.3055C59.3495 7.99465 59.2805 7.7281 59.1432 7.50586C58.9825 7.23717 58.752 7.10282 58.454 7.10282C58.1442 7.10282 57.9094 7.23717 57.7486 7.50586C57.6106 7.7281 57.5423 7.99894 57.5423 8.31908C57.5423 8.62994 57.6113 8.89648 57.7486 9.11872C57.9152 9.38742 58.1472 9.52176 58.4467 9.52176C58.7403 9.52176 58.97 9.38527 59.1359 9.11158C59.279 8.88505 59.3495 8.61636 59.3495 8.3055Z" fill="white"/>
<path d="M63.8712 9.9934H63.1804L63.1232 9.60537H63.1019C62.8656 9.91479 62.5286 10.0699 62.0912 10.0699C61.7645 10.0699 61.5003 9.96767 61.3014 9.76473C61.1208 9.58036 61.0305 9.35097 61.0305 9.07871C61.0305 8.66709 61.2067 8.35338 61.5612 8.13614C61.915 7.9189 62.4127 7.81243 63.0535 7.81743V7.75454C63.0535 7.31077 62.8142 7.08925 62.3349 7.08925C61.9935 7.08925 61.6926 7.17286 61.4328 7.33864L61.2764 6.847C61.5979 6.65334 61.995 6.55615 62.4633 6.55615C63.3676 6.55615 63.8212 7.02065 63.8212 7.94963V9.19019C63.8212 9.52676 63.8381 9.79474 63.8712 9.9934ZM63.0725 8.83574V8.31622C62.224 8.30193 61.7998 8.52846 61.7998 8.9951C61.7998 9.17089 61.8482 9.30238 61.9473 9.39027C62.0464 9.47817 62.1726 9.52176 62.3231 9.52176C62.4919 9.52176 62.6498 9.4696 62.7936 9.36598C62.9382 9.26165 63.027 9.12944 63.0601 8.96723C63.0681 8.93078 63.0725 8.88648 63.0725 8.83574Z" fill="white"/>
<path d="M68.2417 9.99344H67.559L67.5231 9.45248H67.5018C67.2838 9.8641 66.9124 10.0699 66.3905 10.0699C65.9736 10.0699 65.6264 9.91054 65.3511 9.59183C65.0759 9.27312 64.9386 8.85936 64.9386 8.35128C64.9386 7.80603 65.0876 7.36441 65.3871 7.02711C65.677 6.71269 66.0323 6.55547 66.4551 6.55547C66.9197 6.55547 67.2449 6.70769 67.4298 7.01282H67.4445V5.0791H68.2145V9.08589C68.2145 9.41389 68.2233 9.71617 68.2417 9.99344ZM67.4445 8.5728V8.01113C67.4445 7.91394 67.4372 7.83533 67.4232 7.77531C67.3799 7.59523 67.2867 7.44373 67.145 7.32153C67.0019 7.19933 66.8294 7.13788 66.6305 7.13788C66.3435 7.13788 66.1189 7.24864 65.9537 7.47088C65.7901 7.69313 65.7071 7.97682 65.7071 8.32341C65.7071 8.65641 65.7856 8.92653 65.9435 9.13448C66.1101 9.35601 66.3347 9.46678 66.6158 9.46678C66.8683 9.46678 67.0702 9.37459 67.2236 9.18951C67.3719 9.01872 67.4445 8.81291 67.4445 8.5728Z" fill="white"/>
<path d="M74.8209 8.28121C74.8209 8.7993 74.669 9.22377 74.3651 9.55678C74.0466 9.89907 73.6252 10.0699 73.0975 10.0699C72.5903 10.0699 72.1858 9.90622 71.8834 9.5775C71.5825 9.2495 71.432 8.83574 71.432 8.33695C71.432 7.81529 71.5869 7.38724 71.8981 7.05495C72.2093 6.72266 72.6277 6.55615 73.1555 6.55615C73.6627 6.55615 74.0715 6.7198 74.3798 7.0478C74.6734 7.36651 74.8209 7.77813 74.8209 8.28121ZM74.0238 8.3055C74.0238 7.99465 73.9548 7.7281 73.8175 7.50586C73.6553 7.23717 73.4263 7.10282 73.1268 7.10282C72.8186 7.10282 72.5837 7.23717 72.4215 7.50586C72.2835 7.7281 72.2152 7.99894 72.2152 8.31908C72.2152 8.62994 72.2842 8.89648 72.4215 9.11872C72.5881 9.38742 72.82 9.52176 73.1195 9.52176C73.4131 9.52176 73.6443 9.38527 73.8102 9.11158C73.9519 8.88505 74.0238 8.61636 74.0238 8.3055Z" fill="white"/>
<path d="M78.957 9.99335H78.1885V8.06391C78.1885 7.46936 77.9566 7.17209 77.4905 7.17209C77.2622 7.17209 77.0779 7.25355 76.9355 7.4172C76.7931 7.58084 76.7219 7.77378 76.7219 7.9946V9.99263H75.952V7.58727C75.952 7.29143 75.9432 6.97057 75.9248 6.62327H76.6001L76.6361 7.14994H76.6574C76.7476 6.98629 76.8812 6.85123 77.0559 6.74333C77.2651 6.61756 77.4978 6.55396 77.754 6.55396C78.0762 6.55396 78.3448 6.65543 78.5584 6.85909C78.8249 7.10849 78.957 7.4808 78.957 7.9753V9.99335Z" fill="white"/>
<path d="M84.1338 7.1858H83.2868V8.82224C83.2868 9.23814 83.4373 9.44609 83.7353 9.44609C83.8733 9.44609 83.9878 9.43466 84.0781 9.41108L84.0979 9.97919C83.9459 10.0349 83.7463 10.0628 83.5004 10.0628C83.1965 10.0628 82.9601 9.97276 82.7891 9.79268C82.6174 9.6126 82.5322 9.3096 82.5322 8.88441V7.1858H82.0265V6.62483H82.5322V6.00742L83.2861 5.78589V6.62412H84.1331V7.1858H84.1338Z" fill="white"/>
<path d="M88.2065 9.99344H87.4365V8.0783C87.4365 7.47446 87.2045 7.17218 86.7399 7.17218C86.3832 7.17218 86.1395 7.34726 86.0059 7.69741C85.9831 7.77102 85.9699 7.86106 85.9699 7.96682V9.99272H85.2014V5.0791H85.9699V7.10929H85.9846C86.2268 6.73984 86.574 6.55547 87.024 6.55547C87.3425 6.55547 87.606 6.65695 87.8152 6.86061C88.0758 7.1143 88.2065 7.49161 88.2065 7.9904V9.99344Z" fill="white"/>
<path d="M92.4073 8.1498C92.4073 8.28415 92.397 8.39706 92.3787 8.48924H90.0717C90.082 8.82225 90.1921 9.07593 90.4057 9.25173C90.6009 9.40894 90.8527 9.48755 91.161 9.48755C91.5023 9.48755 91.8135 9.43466 92.0939 9.32819L92.2143 9.84842C91.8862 9.98705 91.5001 10.0564 91.053 10.0564C90.5172 10.0564 90.0952 9.90273 89.7898 9.59545C89.483 9.28817 89.3311 8.87584 89.3311 8.35847C89.3311 7.85039 89.4727 7.42734 89.7583 7.09005C90.0563 6.72988 90.4592 6.5498 90.9679 6.5498C91.4656 6.5498 91.8436 6.72988 92.099 7.09005C92.3053 7.37589 92.4073 7.72962 92.4073 8.1498ZM91.6733 7.95615C91.6792 7.7339 91.6285 7.54239 91.5243 7.38089C91.3907 7.17294 91.1874 7.06861 90.9121 7.06861C90.6611 7.06861 90.4563 7.17008 90.3 7.37374C90.1722 7.53596 90.0966 7.72962 90.0717 7.95615H91.6733Z" fill="white"/>
</svg>
