<svg width="41" height="41" viewBox="0 0 41 41" fill="none" xmlns="http://www.w3.org/2000/svg">
<g clip-path="url(#clip0_32_225)">
<path d="M3.50671 12.5505H9.68625C10.0098 12.5505 10.2722 12.2883 10.2722 11.9646C10.2722 11.6409 10.0098 11.3787 9.68625 11.3787H3.50671C3.18312 11.3787 2.92078 11.6409 2.92078 11.9646C2.92078 12.2883 3.18304 12.5505 3.50671 12.5505Z" fill="#09A66D"/>
<path d="M9.47454 15.3713H7.03345C6.70985 15.3713 6.44751 15.6336 6.44751 15.9573C6.44751 16.2809 6.70985 16.5432 7.03345 16.5432H9.47454C9.79814 16.5432 10.0605 16.2809 10.0605 15.9573C10.0605 15.6336 9.79814 15.3713 9.47454 15.3713Z" fill="#09A66D"/>
<path d="M1.05566 19.4347H7.03316C7.35676 19.4347 7.6191 19.1724 7.6191 18.8488C7.6191 18.5251 7.35676 18.2628 7.03316 18.2628H1.05566C0.73207 18.2628 0.469727 18.5251 0.469727 18.8488C0.469727 19.1724 0.73207 19.4347 1.05566 19.4347Z" fill="#09A66D"/>
<path d="M10.2722 29.8223C10.2722 29.4986 10.0098 29.2363 9.68625 29.2363H3.50671C3.18312 29.2363 2.92078 29.4986 2.92078 29.8223C2.92078 30.1459 3.18312 30.4082 3.50671 30.4082H9.68625C10.0098 30.4082 10.2722 30.1459 10.2722 29.8223Z" fill="#09A66D"/>
<path d="M9.47454 25.2438H7.03345C6.70985 25.2438 6.44751 25.506 6.44751 25.8297C6.44751 26.1534 6.70985 26.4156 7.03345 26.4156H9.47454C9.79814 26.4156 10.0605 26.1534 10.0605 25.8297C10.0605 25.506 9.79814 25.2438 9.47454 25.2438Z" fill="#09A66D"/>
<path d="M7.6191 22.9382C7.6191 22.6146 7.35676 22.3523 7.03316 22.3523H1.05566C0.73207 22.3523 0.469727 22.6146 0.469727 22.9382C0.469727 23.2619 0.73207 23.5242 1.05566 23.5242H7.03316C7.35676 23.5242 7.6191 23.2619 7.6191 22.9382Z" fill="#09A66D"/>
<path d="M25.4329 13.849C25.7565 13.849 26.0188 13.5867 26.0188 13.263V12.3687C26.0188 12.045 25.7565 11.7827 25.4329 11.7827C25.1092 11.7827 24.8469 12.045 24.8469 12.3687V13.263C24.8469 13.5867 25.1092 13.849 25.4329 13.849Z" fill="#09A66D"/>
<path d="M31.8755 14.4511C31.6466 14.2224 31.2757 14.2224 31.0468 14.4511L30.4144 15.0835C30.1856 15.3124 30.1856 15.6834 30.4144 15.9122C30.6434 16.141 31.0143 16.1409 31.2431 15.9122L31.8755 15.2798C32.1043 15.0509 32.1043 14.68 31.8755 14.4511Z" fill="#09A66D"/>
<path d="M33.0627 20.3075C32.7391 20.3075 32.4768 20.5698 32.4768 20.8934C32.4768 21.2171 32.7391 21.4794 33.0627 21.4794H33.957C34.2807 21.4794 34.543 21.2171 34.543 20.8934C34.543 20.5698 34.2807 20.3075 33.957 20.3075H33.0627Z" fill="#09A66D"/>
<path d="M31.2431 25.8747C31.0142 25.6459 30.6432 25.6459 30.4144 25.8747C30.1856 26.1036 30.1856 26.4745 30.4144 26.7034L31.0468 27.3358C31.2758 27.5646 31.6467 27.5645 31.8755 27.3358C32.1043 27.1069 32.1043 26.7359 31.8755 26.5071L31.2431 25.8747Z" fill="#09A66D"/>
<path d="M24.8469 28.5239V29.4182C24.8469 29.7419 25.1092 30.0042 25.4329 30.0042C25.7565 30.0042 26.0188 29.7419 26.0188 29.4182V28.5239C26.0188 28.2003 25.7565 27.938 25.4329 27.938C25.1092 27.938 24.8469 28.2003 24.8469 28.5239Z" fill="#09A66D"/>
<path d="M19.6231 25.8747L18.9907 26.5071C18.7619 26.736 18.7619 27.107 18.9907 27.3358C19.2196 27.5646 19.5906 27.5645 19.8193 27.3358L20.4517 26.7034C20.6805 26.4745 20.6805 26.1035 20.4517 25.8747C20.223 25.6459 19.852 25.6459 19.6231 25.8747Z" fill="#09A66D"/>
<path d="M16.9078 20.3075C16.5842 20.3075 16.3219 20.5698 16.3219 20.8934C16.3219 21.2171 16.5842 21.4794 16.9078 21.4794H17.8022C18.1258 21.4794 18.3881 21.2171 18.3881 20.8934C18.3881 20.5698 18.1258 20.3075 17.8022 20.3075H16.9078Z" fill="#09A66D"/>
<path d="M20.4518 15.0835L19.8194 14.4511C19.5906 14.2224 19.2196 14.2224 18.9908 14.4511C18.762 14.68 18.762 15.0509 18.9908 15.2798L19.6233 15.9122C19.8522 16.141 20.2231 16.1409 20.4518 15.9122C20.6807 15.6834 20.6807 15.3124 20.4518 15.0835Z" fill="#09A66D"/>
<path d="M28.5836 20.8935C28.5836 20.5698 28.3214 20.3076 27.9977 20.3076H26.0188V15.9573C26.0188 15.6336 25.7565 15.3713 25.4329 15.3713C25.1092 15.3713 24.8469 15.6336 24.8469 15.9573V20.8935C24.8469 21.2172 25.1092 21.4795 25.4329 21.4795H27.9977C28.3213 21.4795 28.5836 21.2172 28.5836 20.8935Z" fill="#09A66D"/>
<path d="M36.5432 20.7968C36.8662 20.7772 37.1122 20.4994 37.0926 20.1765C36.7198 14.0278 31.5983 9.2113 25.4328 9.2113C18.9912 9.2113 13.7506 14.4519 13.7506 20.8936C13.7506 27.3351 18.9912 32.5758 25.4328 32.5758C31.2038 32.5758 36.1281 28.3475 36.9848 22.6416C37.0328 22.3216 36.8123 22.0233 36.4923 21.9752C36.173 21.9273 35.8739 22.1476 35.8258 22.4677C35.0563 27.5938 30.6301 31.404 25.4328 31.404C19.6374 31.404 14.9225 26.689 14.9225 20.8936C14.9225 15.0983 19.6374 10.3833 25.4328 10.3833C30.9798 10.3833 35.5875 14.7161 35.9228 20.2476C35.9423 20.5704 36.2198 20.8155 36.5432 20.7968Z" fill="#09A66D"/>
<path d="M25.4332 5.85669C23.3722 5.85669 21.3529 6.28427 19.4943 7.08388H9.15613C8.83253 7.08388 8.57019 7.34614 8.57019 7.66981C8.57019 7.99349 8.83253 8.25575 9.15613 8.25575H17.29C16.1902 8.96356 15.1778 9.81732 14.2851 10.8029C14.0679 11.0427 14.0862 11.4133 14.326 11.6305C14.566 11.8478 14.9364 11.8294 15.1537 11.5896C17.7789 8.69099 21.5257 7.02856 25.4332 7.02856C33.0784 7.02856 39.2982 13.2483 39.2982 20.8935C39.2982 28.5386 33.0785 34.7584 25.4332 34.7584C17.7881 34.7584 11.5683 28.5386 11.5683 20.8935C11.5683 18.2163 12.3331 15.6179 13.7798 13.379C13.9554 13.1072 13.8775 12.7445 13.6057 12.5689C13.3339 12.3933 12.9712 12.4711 12.7955 12.743C11.226 15.1718 10.3964 17.9901 10.3964 20.8935C10.3964 26.1877 13.1469 30.8511 17.2937 33.5312H9.15621C8.83261 33.5312 8.57027 33.7935 8.57027 34.1172C8.57027 34.4408 8.83261 34.7031 9.15621 34.7031H19.4863C21.3113 35.4921 23.322 35.9303 25.4333 35.9303C33.7246 35.9303 40.4701 29.1848 40.4701 20.8935C40.4701 12.6022 33.7246 5.85669 25.4332 5.85669Z" fill="#09A66D"/>
</g>
<defs>
<clipPath id="clip0_32_225">
<rect width="40" height="40" fill="white" transform="translate(0.469727 0.893433)"/>
</clipPath>
</defs>
</svg>
