<svg width="105" height="31" viewBox="0 0 105 31" fill="none" xmlns="http://www.w3.org/2000/svg">
<path d="M100.964 0.0471191H4.66728C2.53996 0.0471191 0.81543 1.72605 0.81543 3.79712V26.2971C0.81543 28.3682 2.53996 30.0471 4.66728 30.0471H100.964C103.091 30.0471 104.815 28.3682 104.815 26.2971V3.79712C104.815 1.72605 103.091 0.0471191 100.964 0.0471191Z" fill="black"/>
<path d="M100.964 0.647119C101.822 0.647119 102.645 0.978993 103.251 1.56973C103.858 2.16047 104.199 2.96169 104.199 3.79712V26.2971C104.199 27.1326 103.858 27.9338 103.251 28.5245C102.645 29.1152 101.822 29.4471 100.964 29.4471H4.66728C3.80916 29.4471 2.98618 29.1152 2.3794 28.5245C1.77261 27.9338 1.43173 27.1326 1.43173 26.2971V3.79712C1.43173 2.96169 1.77261 2.16047 2.3794 1.56973C2.98618 0.978993 3.80916 0.647119 4.66728 0.647119H100.964ZM100.964 0.0471191H4.66728C3.64571 0.0471191 2.66597 0.442207 1.94361 1.14547C1.22125 1.84873 0.81543 2.80256 0.81543 3.79712V26.2971C0.81543 27.2917 1.22125 28.2455 1.94361 28.9488C2.66597 29.652 3.64571 30.0471 4.66728 30.0471H100.964C101.985 30.0471 102.965 29.652 103.687 28.9488C104.41 28.2455 104.815 27.2917 104.815 26.2971V3.79712C104.815 2.80256 104.41 1.84873 103.687 1.14547C102.965 0.442207 101.985 0.0471191 100.964 0.0471191Z" fill="#A6A6A6"/>
<path d="M53.3084 16.3595C52.6615 16.3624 52.03 16.5519 51.4936 16.9039C50.9573 17.256 50.54 17.7548 50.2946 18.3375C50.0491 18.9202 49.9865 19.5606 50.1145 20.178C50.2426 20.7953 50.5556 21.3618 51.0141 21.8061C51.4726 22.2504 52.056 22.5525 52.6907 22.6743C53.3254 22.796 53.9829 22.7321 54.5803 22.4904C55.1776 22.2487 55.6881 21.8401 56.0472 21.3163C56.4062 20.7924 56.5979 20.1768 56.5979 19.547C56.6042 19.1254 56.5233 18.7069 56.36 18.3165C56.1967 17.926 55.9544 17.5715 55.6474 17.2741C55.3405 16.9767 54.9753 16.7424 54.5734 16.5853C54.1716 16.4282 53.7414 16.3514 53.3084 16.3595ZM53.3084 21.482C52.9106 21.5091 52.5136 21.419 52.169 21.2235C51.8244 21.028 51.5482 20.7361 51.3763 20.3858C51.2044 20.0355 51.1447 19.6429 51.205 19.2591C51.2653 18.8753 51.4429 18.518 51.7145 18.2337C51.9861 17.9495 52.3393 17.7513 52.7281 17.665C53.117 17.5788 53.5235 17.6084 53.8948 17.75C54.2661 17.8917 54.5851 18.1388 54.8102 18.4592C55.0354 18.7797 55.1563 19.1587 55.1573 19.547C55.1697 19.793 55.1314 20.0389 55.0446 20.2703C54.9578 20.5016 54.8244 20.7138 54.652 20.8941C54.4797 21.0744 54.2721 21.2194 54.0413 21.3203C53.8105 21.4213 53.5613 21.4763 53.3084 21.482ZM46.1363 16.3595C45.489 16.3609 44.8568 16.5491 44.3194 16.9003C43.782 17.2514 43.3635 17.7498 43.1169 18.3323C42.8703 18.9149 42.8065 19.5556 42.9337 20.1734C43.0609 20.7912 43.3734 21.3585 43.8316 21.8035C44.2898 22.2485 44.8731 22.5514 45.508 22.6738C46.1429 22.7961 46.8009 22.7326 47.3987 22.4911C47.9965 22.2496 48.5074 21.8411 48.8668 21.3171C49.2262 20.793 49.418 20.1771 49.418 19.547C49.4243 19.1254 49.3434 18.7069 49.1801 18.3165C49.0168 17.926 48.7745 17.5715 48.4676 17.2741C48.1607 16.9767 47.7954 16.7424 47.3936 16.5853C46.9917 16.4282 46.5615 16.3514 46.1285 16.3595H46.1363ZM46.1363 21.482C45.7382 21.5106 45.3406 21.4219 44.9951 21.2274C44.6495 21.0329 44.3722 20.7416 44.199 20.3915C44.0259 20.0414 43.9651 19.6487 44.0244 19.2645C44.0838 18.8802 44.2606 18.5223 44.5318 18.2372C44.803 17.9522 45.1561 17.7532 45.5451 17.6663C45.9341 17.5793 46.341 17.6084 46.7128 17.7497C47.0845 17.891 47.404 18.1381 47.6296 18.4586C47.8551 18.7792 47.9764 19.1584 47.9774 19.547C47.9898 19.793 47.9515 20.0389 47.8648 20.2703C47.778 20.5016 47.6445 20.7138 47.4722 20.8941C47.2999 21.0744 47.0922 21.2194 46.8614 21.3203C46.6307 21.4213 46.3815 21.4763 46.1285 21.482H46.1363ZM37.5928 17.342V18.692H40.9208C40.8687 19.3278 40.5972 19.9278 40.1505 20.3945C39.8175 20.7246 39.4173 20.9833 38.9754 21.1538C38.5336 21.3243 38.06 21.4029 37.5851 21.3845C36.6044 21.3845 35.6639 21.0052 34.9704 20.33C34.277 19.6549 33.8874 18.7392 33.8874 17.7845C33.8874 16.8297 34.277 15.914 34.9704 15.2389C35.6639 14.5637 36.6044 14.1845 37.5851 14.1845C38.5233 14.1696 39.4292 14.5175 40.1043 15.152L41.0826 14.1995C40.6269 13.7502 40.0833 13.3946 39.4838 13.1537C38.8844 12.9128 38.2413 12.7915 37.5928 12.797C36.908 12.771 36.2248 12.8799 35.5842 13.1172C34.9436 13.3544 34.3588 13.7152 33.8648 14.1777C33.3709 14.6403 32.9779 15.1952 32.7095 15.8091C32.441 16.4231 32.3027 17.0835 32.3027 17.7507C32.3027 18.418 32.441 19.0784 32.7095 19.6923C32.9779 20.3063 33.3709 20.8611 33.8648 21.3237C34.3588 21.7863 34.9436 22.147 35.5842 22.3842C36.2248 22.6215 36.908 22.7304 37.5928 22.7045C38.2522 22.7335 38.9104 22.6246 39.523 22.3853C40.1355 22.146 40.6884 21.7817 41.1443 21.317C41.9514 20.4537 42.3823 19.3188 42.346 18.152C42.3485 17.8677 42.3227 17.5839 42.269 17.3045L37.5928 17.342ZM72.4983 18.392C72.2974 17.8165 71.9217 17.3141 71.421 16.9511C70.9202 16.5881 70.318 16.3818 69.6942 16.3595C69.2728 16.3587 68.8557 16.442 68.4687 16.6044C68.0817 16.7667 67.733 17.0046 67.4442 17.3034C67.1554 17.6021 66.9326 17.9553 66.7896 18.3413C66.6466 18.7272 66.5864 19.1375 66.6127 19.547C66.6033 19.9661 66.6808 20.3829 66.8406 20.7722C67.0004 21.1616 67.2391 21.5156 67.5426 21.8131C67.846 22.1107 68.208 22.3456 68.6068 22.5039C69.0056 22.6622 69.433 22.7406 69.8637 22.7345C70.4025 22.7373 70.9337 22.61 71.4096 22.3639C71.8856 22.1178 72.2914 21.7607 72.5908 21.3245L71.4737 20.5745C71.307 20.845 71.071 21.0689 70.7888 21.224C70.5065 21.3791 70.1878 21.4603 69.8637 21.4595C69.53 21.4718 69.2002 21.3862 68.9171 21.2136C68.6341 21.0411 68.411 20.7896 68.2767 20.492L72.6601 18.7295L72.4983 18.392ZM68.0302 19.457C68.0146 19.225 68.0466 18.9923 68.1246 18.7725C68.2025 18.5528 68.3246 18.3504 68.4839 18.1772C68.6432 18.0039 68.8363 17.8634 69.0521 17.7638C69.2678 17.6642 69.5018 17.6074 69.7404 17.597C69.9889 17.581 70.2367 17.6365 70.4531 17.7565C70.6695 17.8765 70.8449 18.0557 70.9576 18.272L68.0302 19.457ZM64.4711 22.547H65.9117V13.172H64.4711V22.547ZM62.1137 17.072H62.0598C61.8427 16.8356 61.5767 16.6467 61.2793 16.5174C60.9819 16.3881 60.6599 16.3215 60.3342 16.322C59.4923 16.3617 58.6984 16.7153 58.117 17.3094C57.5356 17.9035 57.2114 18.6926 57.2114 19.5132C57.2114 20.3338 57.5356 21.1229 58.117 21.717C58.6984 22.3111 59.4923 22.6647 60.3342 22.7045C60.6606 22.7098 60.9843 22.6454 61.2825 22.5158C61.5806 22.3863 61.8459 22.1946 62.0598 21.9545H62.106V22.412C62.106 23.6345 61.4358 24.287 60.3573 24.287C59.9981 24.2788 59.6495 24.1667 59.3559 23.965C59.0623 23.7634 58.837 23.4812 58.7087 23.1545L57.453 23.6645C57.6894 24.2242 58.0921 24.7025 58.6096 25.0379C59.127 25.3733 59.7356 25.5506 60.3573 25.547C62.0444 25.547 63.4388 24.5795 63.4388 22.2245V16.547H62.1137V17.072ZM60.4651 21.482C59.9682 21.4393 59.5057 21.217 59.1688 20.8588C58.8319 20.5007 58.645 20.0326 58.645 19.547C58.645 19.0613 58.8319 18.5933 59.1688 18.2351C59.5057 17.8769 59.9682 17.6546 60.4651 17.612C60.7115 17.6243 60.9529 17.6845 61.175 17.789C61.3971 17.8935 61.5955 18.0403 61.7585 18.2206C61.9214 18.4009 62.0457 18.6112 62.1239 18.839C62.2021 19.0667 62.2327 19.3075 62.2139 19.547C62.2349 19.7875 62.2056 20.0297 62.1277 20.2588C62.0499 20.488 61.9251 20.6994 61.7609 20.8803C61.5967 21.0612 61.3965 21.2078 61.1725 21.3112C60.9484 21.4146 60.7052 21.4727 60.4574 21.482H60.4651ZM79.2468 13.172H75.8032V22.547H77.2438V18.992H79.2545C79.665 19.0207 80.0773 18.9667 80.4655 18.8335C80.8537 18.7003 81.2096 18.4906 81.5109 18.2176C81.8122 17.9446 82.0525 17.614 82.2168 17.2466C82.3811 16.8792 82.4659 16.4827 82.4659 16.082C82.4659 15.6812 82.3811 15.2848 82.2168 14.9173C82.0525 14.5499 81.8122 14.2194 81.5109 13.9463C81.2096 13.6733 80.8537 13.4636 80.4655 13.3304C80.0773 13.1972 79.665 13.1432 79.2545 13.172H79.2468ZM79.2468 17.672H77.2361V14.477H79.2776C79.7158 14.477 80.1361 14.6465 80.446 14.9482C80.7559 15.2499 80.93 15.659 80.93 16.0857C80.93 16.5124 80.7559 16.9216 80.446 17.2233C80.1361 17.525 79.7158 17.6945 79.2776 17.6945L79.2468 17.672ZM88.1291 16.322C87.6047 16.2914 87.0825 16.4108 86.6267 16.6653C86.171 16.9197 85.8015 17.2983 85.5638 17.7545L86.8426 18.272C86.9687 18.0457 87.1596 17.8601 87.3921 17.7375C87.6247 17.615 87.8887 17.561 88.1522 17.582C88.3351 17.5612 88.5204 17.576 88.6973 17.6257C88.8742 17.6754 89.0392 17.7588 89.1826 17.8712C89.3261 17.9836 89.4451 18.1227 89.5327 18.2804C89.6203 18.438 89.6748 18.6111 89.693 18.7895V18.887C89.2303 18.6485 88.7143 18.5248 88.1908 18.527C86.8118 18.527 85.4174 19.277 85.4174 20.6345C85.431 20.9239 85.5041 21.2078 85.6324 21.4693C85.7606 21.7307 85.9414 21.9645 86.164 22.1568C86.3867 22.3491 86.6467 22.496 86.9286 22.5887C87.2106 22.6815 87.5088 22.7183 87.8056 22.697C88.1684 22.7223 88.5315 22.6521 88.8568 22.4938C89.1821 22.3354 89.4576 22.0947 89.6545 21.797H89.7007V22.547H91.0874V18.9395C91.0874 17.297 89.8085 16.3445 88.1677 16.3445L88.1291 16.322ZM87.952 21.4595C87.482 21.4595 86.8272 21.227 86.8272 20.6645C86.8272 19.9145 87.6438 19.667 88.368 19.667C88.8256 19.656 89.2779 19.7648 89.6776 19.982C89.6294 20.388 89.4321 20.7634 89.1221 21.0391C88.8121 21.3147 88.4102 21.472 87.9905 21.482L87.952 21.4595ZM96.141 16.547L94.4924 20.612H94.4462L92.736 16.547H91.1952L93.7605 22.232L92.2968 25.3895H93.7991L97.7434 16.547H96.141ZM83.1911 22.547H84.6317V13.172H83.1911V22.547Z" fill="white"/>
<path d="M37.2983 7.7739C37.3114 8.04899 37.267 8.3238 37.1676 8.58166C37.0683 8.83951 36.9162 9.07502 36.7205 9.2739C36.5021 9.49484 36.2382 9.66848 35.9462 9.78349C35.6542 9.89851 35.3405 9.95231 35.0257 9.9414C34.5481 9.93776 34.0822 9.79697 33.6864 9.53666C33.2905 9.27636 32.9824 8.90812 32.8007 8.47808C32.6189 8.04805 32.5715 7.57535 32.6644 7.11922C32.7574 6.66308 32.9866 6.2438 33.3232 5.9139C33.5445 5.69399 33.8097 5.52062 34.1026 5.40451C34.3954 5.28841 34.7096 5.23204 35.0257 5.2389C35.3514 5.23784 35.6739 5.30165 35.9733 5.4264C36.252 5.53587 36.5002 5.70807 36.6974 5.9289L36.2891 6.3264C36.1354 6.14834 35.9412 6.00754 35.7219 5.91513C35.5027 5.82271 35.2643 5.78121 35.0257 5.7939C34.7851 5.79275 34.5467 5.83892 34.3248 5.92964C34.103 6.02036 33.9022 6.15377 33.7346 6.32185C33.567 6.48994 33.436 6.68925 33.3494 6.90783C33.2628 7.12642 33.2225 7.35977 33.2308 7.5939C33.2257 7.9435 33.3271 8.28673 33.5222 8.58028C33.7173 8.87383 33.9973 9.10455 34.327 9.24334C34.6566 9.38214 35.021 9.42278 35.3744 9.36014C35.7277 9.29751 36.054 9.1344 36.3122 8.8914C36.5493 8.6413 36.686 8.31653 36.6974 7.9764H35.0257V7.4364H37.2675C37.2881 7.54779 37.2984 7.66073 37.2983 7.7739ZM40.8266 5.8989H38.7466V7.3239H40.6417V7.8639H38.7466V9.2889H40.8266V9.8439H38.1303V5.3439H40.8266V5.8989ZM43.3534 9.8439H42.7602V5.8989H41.466V5.3439H44.6785V5.8989H43.3534V9.8439ZM46.9434 9.8439V5.3439H47.5365V9.8439H46.9434ZM50.1712 9.8439H49.578V5.8989H48.2838V5.3439H51.4577V5.8989H50.1712V9.8439ZM57.4743 9.2589C57.024 9.69491 56.4146 9.93965 55.7795 9.93965C55.1444 9.93965 54.5351 9.69491 54.0847 9.2589C53.6469 8.80779 53.4031 8.21073 53.4031 7.59015C53.4031 6.96957 53.6469 6.37251 54.0847 5.9214C54.3067 5.70371 54.5707 5.53093 54.8616 5.41303C55.1525 5.29512 55.4644 5.23442 55.7795 5.23442C56.0946 5.23442 56.4066 5.29512 56.6974 5.41303C56.9883 5.53093 57.2523 5.70371 57.4743 5.9214C57.9138 6.37165 58.1589 6.96903 58.1589 7.59015C58.1589 8.21127 57.9138 8.80865 57.4743 9.2589ZM54.5238 8.8839C54.8573 9.20724 55.3088 9.38878 55.7795 9.38878C56.2502 9.38878 56.7017 9.20724 57.0352 8.8839C57.3643 8.53066 57.5467 8.07082 57.5467 7.5939C57.5467 7.11698 57.3643 6.65714 57.0352 6.3039C56.7017 5.98056 56.2502 5.79902 55.7795 5.79902C55.3088 5.79902 54.8573 5.98056 54.5238 6.3039C54.1947 6.65714 54.0124 7.11698 54.0124 7.5939C54.0124 8.07082 54.1947 8.53066 54.5238 8.8839ZM58.992 9.8439V5.3439H59.7161L61.9656 8.8464V5.3439H62.5588V9.8439H61.9425L59.5928 6.1764V9.8439H58.992Z" fill="white"/>
<path fill-rule="evenodd" clip-rule="evenodd" d="M55.7795 5.30942C55.4746 5.30942 55.1727 5.36817 54.8912 5.48227C54.61 5.59625 54.3547 5.76322 54.14 5.97358C53.7162 6.41068 53.4801 6.98903 53.4801 7.59015C53.4801 8.19119 53.7162 8.76946 54.1399 9.20655C54.5757 9.62806 55.1651 9.86465 55.7795 9.86465C56.3939 9.86465 56.9834 9.62803 57.4192 9.20646C57.8446 8.77024 58.0818 8.19168 58.0818 7.59015C58.0818 6.98855 57.8446 6.40991 57.4191 5.97368C57.2044 5.76327 56.9491 5.59626 56.6678 5.48227C56.3863 5.36817 56.0844 5.30942 55.7795 5.30942ZM54.832 5.34379C55.1322 5.22208 55.4543 5.15942 55.7795 5.15942C56.1048 5.15942 56.4268 5.22208 56.727 5.34379C57.0273 5.4655 57.2998 5.64385 57.529 5.86856L57.5302 5.86972C57.9833 6.33391 58.2359 6.94981 58.2359 7.59015C58.2359 8.2305 57.9833 8.84638 57.5302 9.31056L57.5287 9.3121C57.0639 9.76209 56.435 10.0147 55.7795 10.0147C55.124 10.0147 54.4952 9.76206 54.0304 9.31208L54.0287 9.31043C53.5774 8.8454 53.326 8.22988 53.326 7.59015C53.326 6.95042 53.5774 6.33493 54.0287 5.8699L54.03 5.86854C54.2591 5.64383 54.5317 5.4655 54.832 5.34379ZM35.024 5.31388C34.7184 5.30725 34.4147 5.36174 34.1316 5.47397C33.8485 5.58621 33.5921 5.7538 33.3782 5.96638L33.3779 5.96676C33.0519 6.28618 32.83 6.69216 32.74 7.13381C32.65 7.57547 32.6959 8.03316 32.8719 8.44954C33.0479 8.86592 33.3462 9.22247 33.7295 9.47451C34.1127 9.72655 34.5639 9.86288 35.0263 9.8664L35.0285 9.86642C35.3325 9.87696 35.6353 9.82503 35.9173 9.71397C36.1993 9.60292 36.454 9.43528 36.665 9.22196C36.8534 9.03044 36.9999 8.80363 37.0955 8.55532C37.1912 8.30698 37.234 8.04231 37.2214 7.77737L37.2983 7.7739L37.2213 7.77387C37.2213 7.68601 37.2149 7.5983 37.202 7.5114H35.1028V7.9014H36.777L36.7744 7.97885C36.7624 8.33697 36.6185 8.67893 36.3689 8.94226L36.3659 8.94541C36.0967 9.19871 35.7565 9.36864 35.3882 9.43393C35.0199 9.49922 34.64 9.45686 34.2964 9.31218C33.9528 9.16751 33.6609 8.92701 33.4575 8.62102C33.2545 8.31554 33.1488 7.95845 33.1537 7.59467C33.1453 7.35105 33.1874 7.10829 33.2775 6.88085C33.3678 6.65284 33.5045 6.44494 33.6793 6.26961C33.8542 6.09428 34.0636 5.95512 34.295 5.86049C34.5257 5.76615 34.7736 5.718 35.0238 5.71889C35.2736 5.70595 35.523 5.74956 35.7525 5.8463C35.9571 5.93251 36.1408 6.05883 36.2925 6.21705L36.5912 5.9263C36.4103 5.73919 36.1897 5.59227 35.9445 5.49596L35.943 5.49537C35.6532 5.37464 35.3412 5.31288 35.026 5.3139L35.024 5.31388ZM37.3754 7.77218C37.3887 8.05683 37.3425 8.34117 37.2398 8.60799C37.1368 8.87536 36.9791 9.11956 36.7762 9.32578C36.5502 9.55432 36.2772 9.73406 35.9751 9.85302C35.6734 9.97186 35.3493 10.0275 35.0241 10.0164C34.5316 10.0124 34.0513 9.86719 33.6432 9.59881C33.2349 9.33024 32.917 8.95031 32.7294 8.50663C32.5419 8.06294 32.493 7.57524 32.5889 7.10462C32.6848 6.63409 32.9211 6.20157 33.2684 5.86123C33.497 5.63407 33.771 5.45499 34.0735 5.33505C34.3758 5.2152 34.7001 5.15695 35.0265 5.1639C35.362 5.16294 35.6943 5.2287 36.0029 5.35714C36.2926 5.47105 36.5505 5.65011 36.7556 5.87969L36.8027 5.93247L36.2842 6.43725L36.2302 6.37466C36.0841 6.20551 35.8996 6.07175 35.6913 5.98395C35.483 5.89616 35.2566 5.85673 35.0299 5.86879L35.0254 5.86903C34.7951 5.86793 34.567 5.91198 34.3547 5.99879C34.1424 6.0856 33.9503 6.21325 33.7899 6.3741C33.6295 6.53494 33.5041 6.72566 33.4213 6.93482C33.3384 7.14398 33.2998 7.36727 33.3078 7.59131L33.3079 7.59495C33.3031 7.92974 33.4001 8.25842 33.5869 8.53953C33.7737 8.82065 34.0419 9.04159 34.3575 9.17451C34.6732 9.30742 35.0222 9.34634 35.3606 9.28636C35.6982 9.2265 36.0101 9.07085 36.2571 8.83897C36.4627 8.6214 36.5882 8.34442 36.6155 8.0514H34.9487V7.3614H37.3319L37.3433 7.42314C37.3646 7.53834 37.3753 7.65514 37.3754 7.77218ZM38.0533 5.2689H40.9037V5.9739H38.8237V7.2489H40.7188V7.9389H38.8237V9.2139H40.9037V9.9189H38.0533V5.2689ZM38.2074 5.4189V9.7689H40.7496V9.3639H38.6696V7.7889H40.5647V7.3989H38.6696V5.8239H40.7496V5.4189H38.2074ZM41.389 5.2689H44.7555V5.9739H43.4305V9.9189H42.6832V5.9739H41.389V5.2689ZM41.5431 5.4189V5.8239H42.8373V9.7689H43.2764V5.8239H44.6014V5.4189H41.5431ZM46.8663 5.2689H47.6136V9.9189H46.8663V5.2689ZM47.0204 5.4189V9.7689H47.4595V5.4189H47.0204ZM48.2068 5.2689H51.5348V5.9739H50.2482V9.9189H49.501V5.9739H48.2068V5.2689ZM48.3608 5.4189V5.8239H49.6551V9.7689H50.0942V5.8239H51.3807V5.4189H48.3608ZM58.9149 5.2689H59.7588L61.8885 8.58499V5.2689H62.6358V9.9189H61.8997L59.6699 6.43836V9.9189H58.9149V5.2689ZM59.069 5.4189V9.7689H59.5158V5.91444L61.9852 9.7689H62.4817V5.4189H62.0426V9.10781L59.6734 5.4189H59.069ZM54.4694 6.25076C54.8174 5.91342 55.2885 5.72402 55.7795 5.72402C56.2706 5.72402 56.7416 5.91342 57.0896 6.25076L57.0923 6.25344C57.4343 6.62048 57.6237 7.09835 57.6237 7.5939C57.6237 8.08945 57.4343 8.56726 57.0923 8.93429L57.0896 8.93711C56.7417 9.27445 56.2706 9.46378 55.7795 9.46378C55.2885 9.46378 54.8174 9.27438 54.4694 8.93704L54.5238 8.8839L54.4667 8.93429C54.1248 8.56726 53.9353 8.08945 53.9353 7.5939C53.9353 7.09835 54.1248 6.62054 54.4667 6.25351L54.4694 6.25076ZM54.5796 8.8321C54.8985 9.1406 55.3299 9.31378 55.7795 9.31378C56.2292 9.31378 56.6605 9.14061 56.9795 8.8321C57.2949 8.49285 57.4696 8.05156 57.4696 7.5939C57.4696 7.13624 57.2949 6.69495 56.9795 6.35569C56.6605 6.04719 56.2292 5.87402 55.7795 5.87402C55.3299 5.87402 54.8985 6.04719 54.5796 6.35569C54.2641 6.69495 54.0894 7.13624 54.0894 7.5939C54.0894 8.05156 54.2641 8.49285 54.5796 8.8321Z" fill="white"/>
<path d="M8.85805 5.70216C8.60696 5.99549 8.48022 6.37101 8.50368 6.75216V23.3422C8.48022 23.7233 8.60696 24.0988 8.85805 24.3922L8.91197 24.4447L18.4569 15.1597V14.9422L8.91197 5.64966L8.85805 5.70216Z" fill="url(#paint0_linear_32_320)"/>
<path d="M21.6154 18.2569L18.4568 15.1594V14.9419L21.6154 11.8369L21.6847 11.8744L25.4672 13.9669C26.5457 14.5594 26.5457 15.5344 25.4672 16.1344L21.7001 18.2194L21.6154 18.2569Z" fill="url(#paint1_linear_32_320)"/>
<path d="M21.7078 18.2121L18.4568 15.0471L8.85803 24.3921C9.07787 24.5803 9.3583 24.6877 9.65088 24.6959C9.94346 24.7042 10.2298 24.6126 10.4604 24.4371L21.7155 18.2121" fill="url(#paint2_linear_32_320)"/>
<path d="M21.7077 11.882L10.4526 5.65703C10.222 5.48154 9.93565 5.39 9.64307 5.39821C9.35049 5.40643 9.07005 5.51389 8.85022 5.70203L18.4567 15.047L21.7077 11.882Z" fill="url(#paint3_linear_32_320)"/>
<path opacity="0.2" d="M21.6154 18.1445L10.4527 24.332C10.2303 24.4939 9.96003 24.5814 9.68233 24.5814C9.40462 24.5814 9.13437 24.4939 8.91196 24.332L8.85803 24.3845L8.91196 24.437C9.13387 24.6001 9.40431 24.6883 9.68233 24.6883C9.96035 24.6883 10.2308 24.6001 10.4527 24.437L21.7078 18.212L21.6154 18.1445Z" fill="black"/>
<path opacity="0.12" d="M8.85805 24.2871C8.60696 23.9938 8.48022 23.6183 8.50368 23.2371V23.3496C8.48022 23.7308 8.60696 24.1063 8.85805 24.3996L8.91197 24.3471L8.85805 24.2871ZM25.4672 16.0221L21.6154 18.1446L21.6847 18.2121L25.4672 16.1271C25.6819 16.029 25.8661 15.8774 26.0013 15.6878C26.1366 15.4982 26.2181 15.2772 26.2376 15.0471C26.1943 15.2561 26.1023 15.4527 25.9688 15.6217C25.8352 15.7908 25.6636 15.9277 25.4672 16.0221Z" fill="black"/>
<path opacity="0.25" d="M10.4525 5.76171L25.467 14.0717C25.6635 14.1661 25.835 14.3031 25.9686 14.4721C26.1021 14.6411 26.1941 14.8377 26.2374 15.0467C26.2179 14.8166 26.1364 14.5956 26.0012 14.406C25.8659 14.2164 25.6817 14.0649 25.467 13.9667L10.4525 5.65671C9.37401 5.06421 8.49579 5.55921 8.49579 6.75921V6.87171C8.5189 5.66421 9.38172 5.16921 10.4525 5.76171Z" fill="white"/>
<defs>
<linearGradient id="paint0_linear_32_320" x1="17.6095" y1="6.57966" x2="5.02897" y2="19.5018" gradientUnits="userSpaceOnUse">
<stop stop-color="#00A0FF"/>
<stop offset="0.01" stop-color="#00A1FF"/>
<stop offset="0.26" stop-color="#00BEFF"/>
<stop offset="0.51" stop-color="#00D2FF"/>
<stop offset="0.76" stop-color="#00DFFF"/>
<stop offset="1" stop-color="#00E3FF"/>
</linearGradient>
<linearGradient id="paint1_linear_32_320" x1="26.877" y1="15.0469" x2="8.24174" y2="15.0469" gradientUnits="userSpaceOnUse">
<stop stop-color="#FFE000"/>
<stop offset="0.41" stop-color="#FFBD00"/>
<stop offset="0.78" stop-color="#FFA500"/>
<stop offset="1" stop-color="#FF9C00"/>
</linearGradient>
<linearGradient id="paint2_linear_32_320" x1="19.9437" y1="16.7721" x2="2.87959" y2="34.292" gradientUnits="userSpaceOnUse">
<stop stop-color="#FF3A44"/>
<stop offset="1" stop-color="#C31162"/>
</linearGradient>
<linearGradient id="paint3_linear_32_320" x1="6.43896" y1="0.182034" x2="14.0562" y2="8.00619" gradientUnits="userSpaceOnUse">
<stop stop-color="#32A071"/>
<stop offset="0.07" stop-color="#2DA771"/>
<stop offset="0.48" stop-color="#15CF74"/>
<stop offset="0.8" stop-color="#06E775"/>
<stop offset="1" stop-color="#00F076"/>
</linearGradient>
</defs>
</svg>
