<svg width="57" height="56" viewBox="0 0 57 56" fill="none" xmlns="http://www.w3.org/2000/svg">
<g clip-path="url(#clip0_32_143)">
<path d="M42.4242 32.2169C42.4242 22.0386 34.195 13.7877 24.0436 13.7877C13.8923 13.7877 5.66309 22.0386 5.66309 32.2169C5.66309 42.3952 13.8923 50.6462 24.0436 50.6462C34.195 50.6462 42.4242 42.3952 42.4242 32.2169Z" fill="#89C8FD"/>
<path d="M24.0436 13.7877C23.1003 13.7877 22.1732 13.859 21.2682 13.9966C30.1024 15.3381 36.873 22.9846 36.873 32.2169C36.873 41.4493 30.1024 49.0957 21.2682 50.4373C22.1732 50.5748 23.1003 50.6462 24.0436 50.6462C34.195 50.6462 42.4242 42.3952 42.4242 32.2169C42.4242 22.0386 34.195 13.7877 24.0436 13.7877Z" fill="#60B6FF"/>
<path d="M21.6544 20.95C18.823 22.7244 16.6992 25.563 18.292 28.7571C19.8847 31.9507 23.4241 30.7087 26.698 30.2653C29.972 29.8218 27.4944 39.9355 29.441 42.4196C31.3875 44.9036 36.8733 39.9355 36.3427 36.7415C35.5566 32.0127 35.281 30.3537 41.6517 26.9827L41.6687 26.9763C39.5214 19.705 33.0213 14.3098 25.1946 13.8248L25.1937 13.8526C25.1937 13.8526 24.4858 19.1757 21.6544 20.95Z" fill="#BAEB6C"/>
<path d="M35.5596 17.8542C35.5609 17.855 35.5622 17.8563 35.5635 17.8572C35.5622 17.8563 35.5609 17.8555 35.5596 17.8542Z" fill="#BAEB6C"/>
<path d="M37.8074 20.0041C37.8074 20.0045 37.8078 20.0049 37.8082 20.0049C37.8078 20.0045 37.8078 20.0045 37.8074 20.0041Z" fill="#BAEB6C"/>
<path d="M11.8329 40.5563C10.9827 39.2596 13.3373 36.2095 13.8679 33.9028C14.399 31.5961 11.2134 31.7734 10.2402 30.9749C9.26691 30.1764 7.93945 26.7166 6.96619 25.918L6.81067 25.7954C6.06897 27.7949 5.66309 29.9585 5.66309 32.2169C5.66309 38.3086 8.61108 43.709 13.1544 47.0641L13.16 46.6779C13.16 46.6779 13.8679 43.6616 11.8329 40.5563Z" fill="#BAEB6C"/>
<path d="M36.3428 36.7415C36.3389 36.7184 36.3351 36.6957 36.3312 36.6727C35.9796 38.0933 35.4635 39.4489 34.8043 40.7178C35.8497 39.4839 36.5483 37.9796 36.3428 36.7415Z" fill="#BAEB6C"/>
<path d="M25.1946 13.8248L25.1938 13.8526C25.1938 13.8526 25.1348 14.2969 24.9827 14.9707C31.4282 17.4103 36.1471 23.3772 36.7965 30.5242C37.6087 29.4133 39.0942 28.3358 41.6517 26.9827L41.6688 26.9763C39.5215 19.705 33.0214 14.3098 25.1946 13.8248Z" fill="#96D629"/>
<path d="M24.0185 56C22.7167 56 21.4054 55.8932 20.0951 55.6766C13.8312 54.6422 8.34496 51.2307 4.64714 46.0704C0.94933 40.9101 -0.517406 34.6185 0.517384 28.3551C0.592152 27.9013 1.02196 27.5946 1.47442 27.6693C1.92815 27.7441 2.23534 28.1726 2.16015 28.6264C1.19841 34.451 2.56218 40.3017 6.00109 45.1005C9.43999 49.8994 14.5413 53.0717 20.3668 54.0338C32.3925 56.0205 43.7897 47.8529 45.776 35.8289C46.7377 30.0042 45.374 24.1535 41.935 19.3547C38.4966 14.5559 33.3948 11.3836 27.5698 10.4214C27.116 10.3466 26.8088 9.91811 26.8836 9.46438C26.9588 9.01064 27.3882 8.70388 27.8406 8.77865C34.1049 9.81301 39.5912 13.2246 43.2886 18.3848C46.9864 23.5451 48.4531 29.8368 47.4188 36.1002C46.3844 42.3636 42.9724 47.8494 37.8117 51.5468C33.7302 54.4709 28.9416 56 24.0185 56Z" fill="#09A66D"/>
<path d="M18.9637 20.1126C10.0753 18.6045 4.56122 7.41319 4.56122 7.41319C4.56122 7.41319 13.4586 -1.33297 22.347 0.174785C31.2355 1.68254 36.7495 12.8738 36.7495 12.8738C36.7495 12.8738 27.8521 21.6204 18.9637 20.1126Z" fill="#49CB5C"/>
<path d="M22.347 0.174722C20.6496 -0.113242 18.9526 -0.0265113 17.3167 0.301187C25.8338 2.21354 31.0876 12.8738 31.0876 12.8738C31.0876 12.8738 25.2634 18.5984 18.3318 19.9861C18.5407 20.0331 18.7509 20.0763 18.9637 20.1126C27.8521 21.6203 36.7495 12.8738 36.7495 12.8738C36.7495 12.8738 31.2355 1.68247 22.347 0.174722Z" fill="#07B128"/>
<path d="M36.2471 11.9445L27.5547 10.4782L19.4354 0.0234985C18.7877 0.0615234 18.1459 0.144409 17.5128 0.263184L25.128 10.0685L18.5736 8.96277L12.981 1.72693C12.4563 1.96362 11.9462 2.21484 11.4544 2.47546L16.1528 8.55432L5.31488 6.72571C4.82825 7.15082 4.56122 7.41315 4.56122 7.41315C4.56122 7.41315 4.73981 7.77502 5.08246 8.37531L15.8615 10.1937L9.88342 14.816C10.2684 15.2125 10.6721 15.6043 11.0942 15.9846L18.0959 10.5709L25.0349 11.7416L15.5978 19.0428C16.1836 19.3162 16.789 19.5529 17.4132 19.7435L27.2693 12.1188L35.9672 13.586C36.4714 13.1464 36.7495 12.8738 36.7495 12.8738C36.7495 12.8738 36.5773 12.5251 36.2471 11.9445Z" fill="#09A66D"/>
<path d="M42.7949 9.24945C45.1794 3.60724 53.4411 1.7077 53.4411 1.7077C53.4411 1.7077 57.837 8.95593 55.4525 14.5981C53.0685 20.2404 44.8064 22.1399 44.8064 22.1399C44.8064 22.1399 40.4105 14.8917 42.7949 9.24945Z" fill="#49CB5C"/>
<path d="M53.4412 1.7077C53.4412 1.7077 51.5626 2.14008 49.3383 3.20392C50.4795 5.62128 52.2884 10.5273 50.5679 14.5981C49.3208 17.5496 46.4651 19.4769 44.0251 20.6437C44.4656 21.5768 44.8069 22.1399 44.8069 22.1399C44.8069 22.1399 53.0686 20.2404 55.4531 14.5981C57.8371 8.95593 53.4412 1.7077 53.4412 1.7077Z" fill="#07B128"/>
<path d="M56.1281 9.94458L49.775 12.6097L53.9462 2.63739C53.6475 2.04779 53.4412 1.7077 53.4412 1.7077C53.4412 1.7077 53.0481 1.79828 52.4085 1.99823L48.0976 12.3043L45.4243 5.72681C44.9714 6.12628 44.5442 6.56036 44.1567 7.03076L47.1859 14.4841L44.3404 21.2867C44.6181 21.8289 44.8065 22.1399 44.8065 22.1399C44.8065 22.1399 45.2338 22.0416 45.9208 21.8237L48.8589 14.7998L56.1255 11.7518C56.1738 11.1481 56.1713 10.5427 56.1281 9.94458Z" fill="#09A66D"/>
</g>
<defs>
<clipPath id="clip0_32_143">
<rect width="56" height="56" fill="white" transform="translate(0.194336)"/>
</clipPath>
</defs>
</svg>
